<svg xmlns="http://www.w3.org/2000/svg" xmlns:xlink="http://www.w3.org/1999/xlink" viewBox="0 0 128 128"><defs><style>.a,.d{fill:none;}.b{fill:#c6c7cd;}.c{fill:#353843;}.d{stroke:#353843;stroke-miterlimit:10;stroke-width:3px;}.e{clip-path:url(#a);}.f{fill:#a5a6ad;}</style><clipPath id="a"><polygon class="a" points="64 36.25 39.25 61 39.25 94 88.75 94 88.75 61 64 36.25"/></clipPath></defs><rect class="b" x="2" y="2" width="124" height="124"/><path class="c" d="M124,4V124H4V4H124m4-4H0V128H128V0Z"/><polyline class="d" points="94 64 64 34 34 64"/><g class="e"><polygon class="f" points="40.75 92.5 40.75 46.62 64 23.37 87.25 46.62 87.25 92.5 40.75 92.5"/><path class="c" d="M64,25.49,85.75,47.24V91H42.25V47.24L64,25.49m0-4.24L39.25,46V94h49.5V46L64,21.25Z"/></g></svg>