<svg xmlns="http://www.w3.org/2000/svg" viewBox="0 0 128 128"><defs><style>.a{fill:#c6c7cd;}.b{fill:#353843;}.c,.d{fill:#a5a6ad;}.c{stroke:#c6c7cd;stroke-miterlimit:10;stroke-width:4px;}</style></defs><rect class="a" x="2" y="2" width="124" height="124"/><path class="b" d="M124,4V124H4V4H124m4-4H0V128H128V0Z"/><rect class="b" x="40.5" y="12.5" width="63" height="41"/><path class="b" d="M102,14V52H42V14h60m3-3H39V55h66V11Z"/><rect class="b" x="40.5" y="73.5" width="63" height="41"/><path class="b" d="M102,75v38H42V75h60m3-3H39v44h66V72Z"/><rect class="c" x="23" y="42" width="66" height="44"/><rect class="d" x="24.5" y="43.5" width="63" height="41"/><path class="b" d="M86,45V83H26V45H86m3-3H23V86H89V42Z"/></svg>