<svg xmlns="http://www.w3.org/2000/svg" xmlns:xlink="http://www.w3.org/1999/xlink" viewBox="0 0 128 128"><defs><style>.a,.e,.g{fill:none;}.b{fill:#c6c7cd;}.c{fill:#353843;}.d{fill:#a5a6ad;}.e,.g{stroke:#353843;stroke-miterlimit:10;}.e{stroke-width:3px;}.f{clip-path:url(#a);}.g{stroke-width:1.5px;}.h{clip-path:url(#b);}</style><clipPath id="a"><rect class="a" x="37" y="43" width="21" height="42"/></clipPath><clipPath id="b"><rect class="a" x="70" y="43" width="21" height="42"/></clipPath></defs><rect class="b" x="2" y="2" width="124" height="124"/><path class="c" d="M124,4V124H4V4H124m4-4H0V128H128V0Z"/><polygon class="d" points="29.5 85.5 29.5 28.75 64 43.13 98.5 28.75 98.5 85.5 64 99.88 29.5 85.5"/><path class="c" d="M97,31V84.5L64,98.25,31,84.5V31L62.85,44.27l1.15.48,1.15-.48L97,31m3-4.5-36,15-36-15v60l36,15,36-15v-60Z"/><line class="e" x1="64" y1="41.5" x2="64" y2="98.5"/><g class="f"><line class="g" x1="29.5" y1="43" x2="65.5" y2="58"/><line class="g" x1="29.5" y1="52" x2="65.5" y2="67"/><line class="g" x1="29.5" y1="61" x2="65.5" y2="76"/><line class="g" x1="29.5" y1="70" x2="65.5" y2="85"/></g><g class="h"><line class="g" x1="98.5" y1="43" x2="62.5" y2="58"/><line class="g" x1="98.5" y1="52" x2="62.5" y2="67"/><line class="g" x1="98.5" y1="61" x2="62.5" y2="76"/><line class="g" x1="98.5" y1="70" x2="62.5" y2="85"/></g></svg>